<svg id="Layer_1" data-name="Layer 1" xmlns="http://www.w3.org/2000/svg" viewBox="0 0 131.33 131.21"><defs><style>.cls-1{fill:#323232;}</style></defs><path class="cls-1" d="M65.41,481.5c-.51-36.1,30.46-66,66.44-65.59,34.56.38,65.45,29.64,64.87,66.79-.54,34.83-30.34,64.7-66.3,64.42C95.12,546.84,64.84,516.9,65.41,481.5Zm61.76,9.63c-2.54,0-4.82-.05-7.09.06-.41,0-1,.65-1.14,1.11a10,10,0,0,1-3.83,5.14c-3.88,2.79-8.24,2.95-12.66,2.05-7.11-1.47-11.72-8-10.77-16h1.8c11,0,22,0,33,0,1.22,0,1.71-.34,1.56-1.58-.28-2.36-.34-4.76-.8-7.09-1.31-6.66-4.41-12.28-10.29-16-9.45-6-23.3-2.72-29.69,7C82.8,472.58,82,480,83.49,487.78c2.19,11.64,9.17,18.24,20.44,19.15,7,.56,13.43-.91,18.56-6.13A17.09,17.09,0,0,0,127.17,491.13Zm4-35.1c.59.86.94,1.42,1.32,1.94,5.1,6.93,10.18,13.88,15.34,20.76a2.06,2.06,0,0,1,0,2.94c-5.72,7.89-11.36,15.84-17,23.78-.31.43-.57.89-1,1.59,3.13,0,5.92,0,8.71,0a2.38,2.38,0,0,0,2.27-1.23c3.84-5.79,7.74-11.54,11.62-17.29l1.71-2.48c.44.64.75,1.05,1,1.48,4.09,6.06,8.19,12.1,12.23,18.2a2.56,2.56,0,0,0,2.53,1.32c2.48-.09,5,0,7.46,0,.48,0,.95-.05,1.63-.1-.39-.6-.59-.95-.83-1.29-5.95-8.29-11.88-16.6-17.88-24.87a1.77,1.77,0,0,1,.05-2.54c5.17-6.81,10.28-13.67,15.41-20.51.34-.46.63-1,1.13-1.71-3.07,0-5.76.06-8.44,0A2.68,2.68,0,0,0,166,457.3c-3.57,5.09-7.21,10.14-10.82,15.2-.28.39-.61.75-1,1.21-.41-.58-.71-1-1-1.42-3.46-5-6.91-10.09-10.4-15.11a2.46,2.46,0,0,0-1.5-1.1C138.06,456,134.85,456,131.21,456Z" transform="translate(-65.4 -415.91)"/><path class="cls-1" d="M119.25,476.74H91.67c-.73-6.43,5.54-13.14,12.57-13.54C112.43,462.72,119.13,468.7,119.25,476.74Z" transform="translate(-65.4 -415.91)"/></svg>