<svg id="Layer_1" data-name="Layer 1" xmlns="http://www.w3.org/2000/svg" viewBox="0 0 52.45 117.09"><defs><style>.cls-1{fill:#fff;}.cls-2{fill:#a6a385;}.cls-3{fill:#499d4a;}.cls-4{fill:#58aa50;}</style></defs><path class="cls-1" d="M164.67,268.48l-3.15-1.05s.35-15.91-5.33-17.05c-3.76-4.37.61-187,14.25-.61,0,0-4.72,2.36-5.51,6.38s-.26,12.33-.26,12.33Z" transform="translate(-135.75 -151.39)"/><path class="cls-2" d="M164.67,268.48l-3.15-1.05s.35-15.91-5.33-17.05c-3.76-4.37.61-187,14.25-.61,0,0-4.72,2.36-5.51,6.38s-.26,12.33-.26,12.33Z" transform="translate(-135.75 -151.39)"/><path class="cls-1" d="M166.33,253.09s27.29-17.93,20.9-55.27c-6.12-27.11-20.72-36-22.3-39.44a37.91,37.91,0,0,1-3.41-6.73l1.14,75.47c.09.17-2.27,23.17,3.67,26" transform="translate(-135.75 -151.39)"/><path class="cls-3" d="M166.33,253.09s27.29-17.93,20.9-55.27c-6.12-27.11-20.72-36-22.3-39.44a37.91,37.91,0,0,1-3.41-6.73l1.14,75.47c.09.17-2.27,23.17,3.67,26" transform="translate(-135.75 -151.39)"/><path class="cls-1" d="M160,254.14s-25.62-17.49-24.14-48.27,19.5-45.91,23-48.71c2.36-2.45,2.45-3.32,2.63-5.77,1.57,3.41,1.31,51.15,1.48,56.84.7,21.6-1.22,41.8-3,45.91Z" transform="translate(-135.75 -151.39)"/><path class="cls-4" d="M160,254.14s-25.62-17.49-24.14-48.27,19.5-45.91,23-48.71c2.36-2.45,2.45-3.32,2.63-5.77,1.57,3.41,1.31,51.15,1.48,56.84.7,21.6-1.22,41.8-3,45.91Z" transform="translate(-135.75 -151.39)"/></svg>