<svg id="Layer_1" data-name="Layer 1" xmlns="http://www.w3.org/2000/svg" viewBox="0 0 96.68 109.01"><defs><style>.cls-1{fill:#699f63;}</style></defs><path class="cls-1" d="M63.65,272.53a8.38,8.38,0,0,1-4.19-1.12l-13.34-7.89c-2-1.11-1-1.51-.36-1.74a26.25,26.25,0,0,0,6-2.74,1,1,0,0,1,1,.08L63,265.2a1.3,1.3,0,0,0,1.24,0l40-23.06a1.26,1.26,0,0,0,.61-1.08V195a1.29,1.29,0,0,0-.62-1.1l-39.93-23a1.25,1.25,0,0,0-1.24,0l-39.92,23a1.29,1.29,0,0,0-.63,1.1v46.1a1.22,1.22,0,0,0,.63,1.07l10.94,6.32c5.94,3,9.57-.53,9.57-4V198.89a1.15,1.15,0,0,1,1.17-1.15h5.06A1.15,1.15,0,0,1,51,198.89v45.52c0,7.93-4.32,12.47-11.83,12.47-2.31,0-4.13,0-9.2-2.5l-10.48-6a8.46,8.46,0,0,1-4.19-7.29V195a8.41,8.41,0,0,1,4.19-7.28l40-23.09a8.76,8.76,0,0,1,8.4,0l40,23.09A8.43,8.43,0,0,1,112,195v46.1a8.47,8.47,0,0,1-4.19,7.29L67.86,271.41A8.4,8.4,0,0,1,63.65,272.53Z" transform="translate(-15.32 -163.52)"/><path class="cls-1" d="M76,240.77c-17.48,0-21.14-8-21.14-14.75A1.14,1.14,0,0,1,56,224.87h5.17a1.15,1.15,0,0,1,1.15,1c.78,5.26,3.1,7.92,13.67,7.92,8.42,0,12-1.91,12-6.37,0-2.58-1-4.49-14.09-5.77-10.93-1.08-17.69-3.49-17.69-12.24,0-8.06,6.79-12.87,18.18-12.87,12.8,0,19.13,4.44,19.94,14a1.17,1.17,0,0,1-1.16,1.26H88a1.15,1.15,0,0,1-1.12-.9c-1.25-5.53-4.27-7.3-12.48-7.3-9.19,0-10.25,3.2-10.25,5.6,0,2.9,1.26,3.75,13.66,5.39s18.11,3.92,18.11,12.55S88.65,240.77,76,240.77Z" transform="translate(-15.32 -163.52)"/></svg>