<svg fill="#CC0000" xmlns="http://www.w3.org/2000/svg" viewBox="0 0 18.97 24"><title>Rails Icon</title><path d="M3.59,19.84V24h1V22.88l1,.95H7.2L5.93,22.56s.92,0,1-1.34-.91-1.38-2-1.38ZM4.69,21h.9v.74h-.9Z" transform="translate(-2.51 -0.05)"/><path class="cls-1" d="M9.23,19.86c-.58,0-1.37.05-1.37,1.13v2.86H8.93v-.7H10v.68h1.08v-3c0-.94-1-1-1.6-1Zm-.28,1h1V22H9Z" transform="translate(-2.51 -0.05)"/><path class="cls-1" d="M12.14,19.86h1.11v3.93H12.14Z" transform="translate(-2.51 -0.05)"/><path class="cls-1" d="M14.42,19.91v3.93H17.1v-1H15.52V19.89Z" transform="translate(-2.51 -0.05)"/><path class="cls-1" d="M20.65,19.88v1.06H18.86v.38h.76a1.2,1.2,0,0,1,1.24,1.24c0,1.25-.57,1.32-1.74,1.32H17.71v-1h1.62s.51-.16.51-.3-.25-.2-.75-.2-1.45-.25-1.45-1.22.49-1.34,1.46-1.34,1.55,0,1.55,0Z" transform="translate(-2.51 -0.05)"/><path class="cls-1" d="M4.57,18.67h9.26S11.77,14,12.3,9.73a7.2,7.2,0,0,1,5.81-6.44,3.56,3.56,0,0,1,3,1l.42-.63S18.74.85,15.26,1.16,9.37,3.77,7.87,6.56a25.29,25.29,0,0,0-2.95,7.66,13.66,13.66,0,0,0-.35,4.45Z" transform="translate(-2.51 -0.05)"/><path class="cls-1" d="M2.72,14l1.81.14L4.22,16l-1.71-.21Z" transform="translate(-2.51 -0.05)"/><path class="cls-1" d="M5.58,10.18l.48-1.36L4.46,8.2,3.94,9.66Z" transform="translate(-2.51 -0.05)"/><path class="cls-1" d="M7.84,5.51,8.78,4.4,7.56,3.6l-1,1.08Z" transform="translate(-2.51 -0.05)"/><path class="cls-1" d="M10.31,1.2l.84,1,1.15-.66L11.46.61Z" transform="translate(-2.51 -0.05)"/><path class="cls-1" d="M14.38.05l.21,1L16,1l-.14-.9Z" transform="translate(-2.51 -0.05)"/><path class="cls-1" d="M19.22,1.13l0,.62,1,.53L20.37,2Z" transform="translate(-2.51 -0.05)"/><path class="cls-1" d="M19,3.81v.52l.94.11V4Z" transform="translate(-2.51 -0.05)"/><path class="cls-1" d="M16,4.26l.45.84.67-.53L17,4Z" transform="translate(-2.51 -0.05)"/><path class="cls-1" d="M14.59,5.34l.7,1-.42.73L13.86,6Z" transform="translate(-2.51 -0.05)"/><path class="cls-1" d="M13.2,8.23l-.45.91,1.18,1L14.21,9Z" transform="translate(-2.51 -0.05)"/><path class="cls-1" d="M12.71,11.4l-.07,1.22,1.47.62L14,12.09Z" transform="translate(-2.51 -0.05)"/><path class="cls-1" d="M13.13,15.72,13.48,17l1.84.1-.66-1.35Z" transform="translate(-2.51 -0.05)"/></svg>