<svg id="Layer_1" data-name="Layer 1" xmlns="http://www.w3.org/2000/svg" viewBox="0 0 278.32 208.7"><defs><style>.cls-1{fill:#cf649a;}</style></defs><g id="_288-sass" data-name="288-sass"><path class="cls-1" d="M369.15,181.23a57,57,0,0,0-25.22,5.87c-2.56-5.17-5.22-9.7-5.65-13.09-.52-3.95-1.09-6.3-.48-11s3.35-11.35,3.31-11.83-.61-2.87-6.22-2.91-10.43,1.08-11,2.56a52.83,52.83,0,0,0-2.3,8.31c-1,5.08-11.22,23.26-17,32.73-1.92-3.69-3.52-6.95-3.87-9.56-.52-4-1.09-6.31-.48-11s3.35-11.35,3.3-11.83-.61-2.87-6.21-2.91-10.44,1.09-11,2.57-1.18,4.95-2.31,8.3-14.74,33.61-18.3,41.48c-1.83,4-3.39,7.21-4.52,9.39-.18.34-.31.56-.39.74.13-.22.21-.44.21-.35-.95,1.87-1.52,2.91-1.52,2.91v0c-.74,1.39-1.56,2.65-1.95,2.65s-.83-3.65.13-8.65c2-10.52,6.87-26.86,6.82-27.43,0-.3.91-3.13-3.17-4.65s-5.39,1-5.74,1-.61.87-.61.87S259.37,167,246.55,167c-8,0-19.13,8.78-24.61,16.74-3.43,1.87-10.87,5.91-18.69,10.22l-9,4.95c-.22-.22-.4-.43-.61-.65-15.57-16.61-44.3-28.35-43.09-50.65.44-8.13,3.26-29.47,55.26-55.39C248.42,71,282.5,76.8,288.37,89.76c8.43,18.48-18.22,52.87-62.47,57.82-16.87,1.87-25.74-4.65-28-7.08s-2.65-2.7-3.52-2.22c-1.44.78-.52,3,0,4.39,1.3,3.43,6.74,9.52,16,12.56,8.13,2.65,27.91,4.13,51.82-5.13,26.87-10.34,47.78-39.17,41.65-63.3C297.63,62.28,257,54.24,218.51,67.89,195.59,76,170.81,88.8,153,105.45c-21.17,19.83-24.57,37.09-23.17,44.31,5,25.6,40.25,42.3,54.38,54.64l-1.95,1.09c-7.09,3.52-34,17.61-40.74,32.48-7.61,16.87,1.26,29,7.09,30.6,18.17,5.05,36.78-4,46.78-18.95s8.78-34.39,4.17-43.26c0-.13-.13-.22-.17-.35,1.82-1.08,3.69-2.17,5.56-3.26,3.61-2.13,7.13-4.09,10.22-5.78-1.74,4.7-3,10.35-3.65,18.52-.79,9.56,3.17,22,8.3,26.82a9.09,9.09,0,0,0,6.69,2.18c6,0,8.7-5,11.7-10.87,3.69-7.22,7-15.61,7-15.61s-4.09,22.7,7.08,22.7c4.09,0,8.18-5.26,10-8v0s.09-.17.31-.52c.43-.65.65-1,.65-1v-.13c1.65-2.83,5.26-9.31,10.69-20,7.05-13.83,13.78-31.09,13.78-31.09a87.41,87.41,0,0,0,2.7,11.22c1.22,4.13,3.78,8.65,5.82,13-1.65,2.26-2.65,3.57-2.65,3.57a.11.11,0,0,0,0,.08c-1.31,1.75-2.79,3.61-4.31,5.44-5.56,6.61-12.17,14.17-13,16.35-1,2.56-.78,4.47,1.22,5.95,1.47,1.13,4.08,1.31,6.82,1.09a30.06,30.06,0,0,0,10.22-2.35,35.71,35.71,0,0,0,8.78-4.61,19.58,19.58,0,0,0,8.43-17.3,36,36,0,0,0-3.17-12.26c.48-.69,1-1.43,1.48-2.17a231.15,231.15,0,0,0,15.26-26.35,87.41,87.41,0,0,0,2.7,11.22c1,3.52,3.08,7.39,4.95,11.17-8.09,6.57-13.08,14.17-14.82,19.17-3.22,9.26-.7,13.44,4,14.39,2.13.44,5.17-.56,7.43-1.52a34.39,34.39,0,0,0,9.39-4.82c5.44-4,10.7-9.61,10.35-17.22A32,32,0,0,0,347,193.93c6.83-2.87,15.7-4.44,27-3.13,24.22,2.82,29,17.95,28,24.25s-6,9.83-7.69,10.87-2.22,1.44-2.09,2.22c.22,1.13,1,1.09,2.44.83,2-.35,12.69-5.13,13.17-16.83.7-14.78-13.52-31-38.69-30.91ZM182.51,244.14c-8,8.74-19.22,12-24,9.26-5.18-3-3.13-15.87,6.74-25.17a128.68,128.68,0,0,1,18.86-14.09c1.18-.69,2.87-1.74,5-3l.52-.3c.39-.26.83-.48,1.26-.74,3.61,13.22.13,24.87-8.3,34Zm58.43-39.74c-2.78,6.83-8.65,24.22-12.22,23.31-3-.79-4.91-14.05-.61-27.09,2.18-6.56,6.79-14.39,9.53-17.43,4.39-4.91,9.21-6.48,10.34-4.52,1.52,2.56-5.3,21.47-7,25.73Zm48.26,23c-1.18.6-2.26,1-2.79.69s.48-1,.48-1,6-6.48,8.44-9.44c1.39-1.74,3-3.78,4.74-6,0,.22,0,.44,0,.7C300.07,220.1,292.59,225.36,289.2,227.45ZM326.41,219c-.87-.61-.74-2.65,2.18-9a33.85,33.85,0,0,1,8.26-10.65,15.71,15.71,0,0,1,.82,4.69c0,9.78-7,13.44-11.26,15Z" transform="translate(-129.54 -61.28)"/></g></svg>